<svg id="visual" viewBox="0 0 900 600" width="900" height="600" xmlns="http://www.w3.org/2000/svg" xmlns:xlink="http://www.w3.org/1999/xlink" version="1.1"><g stroke-width="1" stroke-linejoin="bevel"><path d="M395 292L372 179L326 286Z" fill="#f5fab6" stroke="#f5fab6"></path><path d="M372 179L296 194L326 286Z" fill="#fccb4a" stroke="#fccb4a"></path><path d="M490 205L417 121L372 179Z" fill="#f5e580" stroke="#f5e580"></path><path d="M372 179L295 60L296 194Z" fill="#f6ffc3" stroke="#f6ffc3"></path><path d="M395 292L490 205L372 179Z" fill="#f8d965" stroke="#f8d965"></path><path d="M296 194L237 302L326 286Z" fill="#f5fab6" stroke="#f5fab6"></path><path d="M326 286L400 418L395 292Z" fill="#ffc43c" stroke="#ffc43c"></path><path d="M210 120L220 187L296 194Z" fill="#f6df73" stroke="#f6df73"></path><path d="M296 194L220 187L237 302Z" fill="#fccb4a" stroke="#fccb4a"></path><path d="M490 205L482 137L417 121Z" fill="#f4eb8d" stroke="#f4eb8d"></path><path d="M461 414L504 330L395 292Z" fill="#f6ffc3" stroke="#f6ffc3"></path><path d="M395 292L504 330L490 205Z" fill="#f4f5a8" stroke="#f4f5a8"></path><path d="M237 302L293 405L326 286Z" fill="#f5e580" stroke="#f5e580"></path><path d="M293 405L400 418L326 286Z" fill="#f8d965" stroke="#f8d965"></path><path d="M367 0L295 60L417 121Z" fill="#f4f5a8" stroke="#f4f5a8"></path><path d="M417 121L295 60L372 179Z" fill="#f4f09b" stroke="#f4f09b"></path><path d="M295 60L210 120L296 194Z" fill="#f6ffc3" stroke="#f6ffc3"></path><path d="M121 365L214 429L237 302Z" fill="#f5e580" stroke="#f5e580"></path><path d="M400 418L461 414L395 292Z" fill="#f4f5a8" stroke="#f4f5a8"></path><path d="M504 330L565 274L490 205Z" fill="#f5fab6" stroke="#f5fab6"></path><path d="M490 205L583 109L482 137Z" fill="#f8d965" stroke="#f8d965"></path><path d="M572 400L565 274L504 330Z" fill="#f8d965" stroke="#f8d965"></path><path d="M293 405L416 468L400 418Z" fill="#f8d965" stroke="#f8d965"></path><path d="M400 418L416 468L461 414Z" fill="#fad258" stroke="#fad258"></path><path d="M487 0L367 0L417 121Z" fill="#f6ffc3" stroke="#f6ffc3"></path><path d="M295 60L175 0L210 120Z" fill="#fad258" stroke="#fad258"></path><path d="M237 302L214 429L293 405Z" fill="#f6ffc3" stroke="#f6ffc3"></path><path d="M293 405L271 519L416 468Z" fill="#fccb4a" stroke="#fccb4a"></path><path d="M121 365L237 302L87 339Z" fill="#fad258" stroke="#fad258"></path><path d="M367 0L311 0L295 60Z" fill="#f6ffc3" stroke="#f6ffc3"></path><path d="M632 230L583 109L490 205Z" fill="#ffc43c" stroke="#ffc43c"></path><path d="M482 137L487 0L417 121Z" fill="#fad258" stroke="#fad258"></path><path d="M513 514L572 400L461 414Z" fill="#f4f5a8" stroke="#f4f5a8"></path><path d="M461 414L572 400L504 330Z" fill="#f4f5a8" stroke="#f4f5a8"></path><path d="M565 274L632 230L490 205Z" fill="#ffc43c" stroke="#ffc43c"></path><path d="M175 0L128 119L210 120Z" fill="#f4eb8d" stroke="#f4eb8d"></path><path d="M210 120L128 119L220 187Z" fill="#f6ffc3" stroke="#f6ffc3"></path><path d="M725 325L632 230L565 274Z" fill="#fccb4a" stroke="#fccb4a"></path><path d="M583 109L487 0L482 137Z" fill="#fccb4a" stroke="#fccb4a"></path><path d="M87 339L237 302L63 212Z" fill="#f4f09b" stroke="#f4f09b"></path><path d="M121 365L176 465L214 429Z" fill="#f5fab6" stroke="#f5fab6"></path><path d="M214 429L271 519L293 405Z" fill="#ffc43c" stroke="#ffc43c"></path><path d="M176 465L271 519L214 429Z" fill="#ffc43c" stroke="#ffc43c"></path><path d="M63 212L237 302L220 187Z" fill="#fccb4a" stroke="#fccb4a"></path><path d="M121 365L84 462L176 465Z" fill="#f6df73" stroke="#f6df73"></path><path d="M128 119L63 212L220 187Z" fill="#f4f5a8" stroke="#f4f5a8"></path><path d="M311 0L175 0L295 60Z" fill="#f5fab6" stroke="#f5fab6"></path><path d="M0 130L0 169L63 212Z" fill="#f6df73" stroke="#f6df73"></path><path d="M416 468L513 514L461 414Z" fill="#ffc43c" stroke="#ffc43c"></path><path d="M383 600L513 514L416 468Z" fill="#f8d965" stroke="#f8d965"></path><path d="M695 75L615 0L583 109Z" fill="#ffc43c" stroke="#ffc43c"></path><path d="M583 109L615 0L487 0Z" fill="#f4eb8d" stroke="#f4eb8d"></path><path d="M725 325L714 206L632 230Z" fill="#f8d965" stroke="#f8d965"></path><path d="M632 230L714 206L583 109Z" fill="#f5fab6" stroke="#f5fab6"></path><path d="M725 325L565 274L572 400Z" fill="#f4f5a8" stroke="#f4f5a8"></path><path d="M513 514L613 496L572 400Z" fill="#fccb4a" stroke="#fccb4a"></path><path d="M0 406L84 462L87 339Z" fill="#f4f5a8" stroke="#f4f5a8"></path><path d="M87 339L84 462L121 365Z" fill="#fad258" stroke="#fad258"></path><path d="M182 600L279 600L271 519Z" fill="#fad258" stroke="#fad258"></path><path d="M279 600L383 600L271 519Z" fill="#f4f09b" stroke="#f4f09b"></path><path d="M271 519L383 600L416 468Z" fill="#f6df73" stroke="#f6df73"></path><path d="M513 514L602 600L613 496Z" fill="#f5e580" stroke="#f5e580"></path><path d="M714 206L695 75L583 109Z" fill="#f6ffc3" stroke="#f6ffc3"></path><path d="M63 212L0 302L87 339Z" fill="#f4eb8d" stroke="#f4eb8d"></path><path d="M0 169L0 302L63 212Z" fill="#f4eb8d" stroke="#f4eb8d"></path><path d="M728 437L725 325L572 400Z" fill="#fccb4a" stroke="#fccb4a"></path><path d="M182 600L271 519L176 465Z" fill="#fad258" stroke="#fad258"></path><path d="M0 130L63 212L128 119Z" fill="#f4f09b" stroke="#f4f09b"></path><path d="M175 0L72 0L128 119Z" fill="#f5e580" stroke="#f5e580"></path><path d="M72 0L0 130L128 119Z" fill="#f5fab6" stroke="#f5fab6"></path><path d="M383 600L522 600L513 514Z" fill="#f4eb8d" stroke="#f4eb8d"></path><path d="M0 302L0 406L87 339Z" fill="#fccb4a" stroke="#fccb4a"></path><path d="M112 600L182 600L176 465Z" fill="#f4f09b" stroke="#f4f09b"></path><path d="M112 600L176 465L84 462Z" fill="#f6ffc3" stroke="#f6ffc3"></path><path d="M706 523L728 437L613 496Z" fill="#f5e580" stroke="#f5e580"></path><path d="M613 496L728 437L572 400Z" fill="#f4f09b" stroke="#f4f09b"></path><path d="M836 279L778 213L725 325Z" fill="#f6ffc3" stroke="#f6ffc3"></path><path d="M725 325L778 213L714 206Z" fill="#f4f09b" stroke="#f4f09b"></path><path d="M714 206L825 99L695 75Z" fill="#f4f09b" stroke="#f4f09b"></path><path d="M522 600L602 600L513 514Z" fill="#f8d965" stroke="#f8d965"></path><path d="M0 406L0 472L84 462Z" fill="#f8d965" stroke="#f8d965"></path><path d="M72 0L0 0L0 130Z" fill="#fccb4a" stroke="#fccb4a"></path><path d="M0 600L112 600L84 462Z" fill="#f5e580" stroke="#f5e580"></path><path d="M825 99L736 0L695 75Z" fill="#f4eb8d" stroke="#f4eb8d"></path><path d="M695 75L736 0L615 0Z" fill="#f5fab6" stroke="#f5fab6"></path><path d="M602 600L706 523L613 496Z" fill="#fad258" stroke="#fad258"></path><path d="M832 434L836 279L725 325Z" fill="#f4f5a8" stroke="#f4f5a8"></path><path d="M778 213L825 99L714 206Z" fill="#f8d965" stroke="#f8d965"></path><path d="M832 434L725 325L728 437Z" fill="#fccb4a" stroke="#fccb4a"></path><path d="M900 207L825 99L778 213Z" fill="#f4f5a8" stroke="#f4f5a8"></path><path d="M825 99L800 0L736 0Z" fill="#f4eb8d" stroke="#f4eb8d"></path><path d="M602 600L709 600L706 523Z" fill="#f5e580" stroke="#f5e580"></path><path d="M778 534L832 434L728 437Z" fill="#f5e580" stroke="#f5e580"></path><path d="M778 534L728 437L706 523Z" fill="#f4f09b" stroke="#f4f09b"></path><path d="M709 600L778 534L706 523Z" fill="#fccb4a" stroke="#fccb4a"></path><path d="M0 472L0 600L84 462Z" fill="#f6df73" stroke="#f6df73"></path><path d="M900 280L900 207L836 279Z" fill="#f5e580" stroke="#f5e580"></path><path d="M836 279L900 207L778 213Z" fill="#f5fab6" stroke="#f5fab6"></path><path d="M825 99L900 0L800 0Z" fill="#f4eb8d" stroke="#f4eb8d"></path><path d="M900 401L900 280L836 279Z" fill="#f4eb8d" stroke="#f4eb8d"></path><path d="M900 207L900 91L825 99Z" fill="#f6df73" stroke="#f6df73"></path><path d="M900 479L900 401L832 434Z" fill="#f6df73" stroke="#f6df73"></path><path d="M832 434L900 401L836 279Z" fill="#f6ffc3" stroke="#f6ffc3"></path><path d="M900 91L900 0L825 99Z" fill="#f5e580" stroke="#f5e580"></path><path d="M709 600L827 600L778 534Z" fill="#f5fab6" stroke="#f5fab6"></path><path d="M778 534L900 479L832 434Z" fill="#f6df73" stroke="#f6df73"></path><path d="M827 600L900 479L778 534Z" fill="#f5e580" stroke="#f5e580"></path><path d="M827 600L900 600L900 479Z" fill="#f5fab6" stroke="#f5fab6"></path></g></svg>